# xmcd
#
# Track frame offsets: 
#        150
#        8633
#        18017
#        29301
#        38736
#        51804
#        66186
#        77708
#        91575
#        102218
#        110799
#        123636
#
# Disc length: 1816 seconds
#
# Revision: 0
# Processed by: cddbd v1.5.2PL0 Copyright (c) Steve Scherf et al.
# Submitted via: ExactAudioCopyFreeDBPlugin 1.0
#
DISCID=8a07160c
DTITLE=Doris Troy - Just One Look
DYEAR=1963
DGENRE=R&B
TTITLE0=What'Cha Gonna Do About It
TTITLE1=Bossa Nova Blues
TTITLE2=Just One Look
TTITLE3=Trust In Me
TTITLE4=Lazy Days (When Are You Coming Home)
TTITLE5=Somewhere Along The Way
TTITLE6=Draw Me Closer
TTITLE7=A School For Fools
TTITLE8=Be Sure
TTITLE9=Someone Ain't Right
TTITLE10=Stormy Weather
TTITLE11=Time
EXTD=
EXTT0=
EXTT1=
EXTT2=
EXTT3=
EXTT4=
EXTT5=
EXTT6=
EXTT7=
EXTT8=
EXTT9=
EXTT10=
EXTT11=
PLAYORDER=
